<svg xmlns="http://www.w3.org/2000/svg" xmlns:xlink="http://www.w3.org/1999/xlink" version="1.1" width="256" height="256" viewBox="0 0 256 256" xml:space="preserve">

<defs>
</defs>
<g style="stroke: none; stroke-width: 0; stroke-dasharray: none; stroke-linecap: butt; stroke-linejoin: miter; stroke-miterlimit: 10; fill: none; fill-rule: nonzero; opacity: 1;" transform="translate(1.4065934065934016 1.4065934065934016) scale(2.81 2.81)" >
	<rect x="43.19" y="15.15" rx="0" ry="0" width="2" height="12.17" style="stroke: none; stroke-width: 1; stroke-dasharray: none; stroke-linecap: butt; stroke-linejoin: miter; stroke-miterlimit: 10; fill: rgb(0,0,0); fill-rule: nonzero; opacity: 1;" transform=" matrix(1 0 0 1 0 0) "/>
	<path d="M 44.191 23.06 c -14.849 -9.22 -30.105 -1.63 -35 12.955 c 5.161 1.337 8.979 6.012 8.979 11.592 c 0 2.134 -0.565 4.133 -1.543 5.869 c 2.77 2.196 4.552 5.583 4.552 9.392 c 0 4.379 -2.355 8.198 -5.86 10.29 c 6.391 12.381 16.112 20.904 28.873 14.845 c 19.383 9.202 31.767 -15.224 36.097 -35.735 C 84.352 28.209 63.908 10.817 44.191 23.06 z" style="stroke: none; stroke-width: 1; stroke-dasharray: none; stroke-linecap: butt; stroke-linejoin: miter; stroke-miterlimit: 10; fill: rgb(0,0,0); fill-rule: nonzero; opacity: 1;" transform=" matrix(1 0 0 1 0 0) " stroke-linecap="round" />
	<path d="M 46.224 4.038 c 3.933 -3.933 9.347 -5.084 13.007 -3.05 c 2.035 3.66 0.883 9.075 -3.049 13.007 c -3.933 3.933 -9.347 5.084 -13.007 3.05 C 41.139 13.385 42.291 7.97 46.224 4.038 z" style="stroke: none; stroke-width: 1; stroke-dasharray: none; stroke-linecap: butt; stroke-linejoin: miter; stroke-miterlimit: 10; fill: rgb(0,0,0); fill-rule: nonzero; opacity: 1;" transform=" matrix(1 0 0 1 0 0) " stroke-linecap="round" />
</g>
</svg>